# xmcd
#
# Track frame offsets:
#	150
#	52336
#	75767
#	113546
#	147308
#	177764
#	202046
#	230789
#	258556
#	287943
#
# Disc length: 4256 seconds
#
# Revision: 1
# Processed by: cddbd v1.5.2PL0 Copyright (c) Steve Scherf et al.
# Submitted via: audiograbber 1.83.01
#
DISCID=92109e0a
DTITLE=Grateful Dead - 78-11-14A Boston Music Hall, Boston MA
DYEAR=1900
DGENRE=
TTITLE0=Sugaree
TTITLE1=El Paso
TTITLE2=Candyman
TTITLE3=It's All Over Now
TTITLE4=Loser
TTITLE5=Passenger
TTITLE6=Stagger Lee
TTITLE7=I Need A Miracle
TTITLE8=Bertha
TTITLE9=Good Lovin'
EXTD=
EXTT0=
EXTT1=
EXTT2=
EXTT3=
EXTT4=
EXTT5=
EXTT6=
EXTT7=
EXTT8=
EXTT9=
PLAYORDER=
